<svg width="28" height="28" viewBox="0 0 28 28" fill="none" xmlns="http://www.w3.org/2000/svg">
<path d="M25.1234 23.8766L19.8297 18.5828L20.1906 18.4734C21.0032 18.1804 21.7494 17.7288 22.386 17.1448C23.0225 16.5609 23.5366 15.8562 23.8984 15.0719C24.6298 13.4926 24.7084 11.6885 24.1172 10.0516C24.0319 9.83529 23.8677 9.65941 23.6578 9.55938C23.5542 9.50982 23.4413 9.48229 23.3265 9.47853C23.2117 9.47476 23.0973 9.49484 22.9906 9.5375L18.1344 11.2984L18.2438 11.0797C18.7944 9.9031 18.9834 8.58957 18.7869 7.30547C18.5904 6.02137 18.0172 4.82448 17.1399 3.86639C16.2627 2.90831 15.1208 2.23214 13.8589 1.92353C12.5971 1.61492 11.272 1.68776 10.0516 2.13282C9.83529 2.21815 9.65941 2.38231 9.55938 2.59219C9.50982 2.69585 9.48229 2.80866 9.47853 2.92349C9.47476 3.03833 9.49484 3.1527 9.5375 3.25938L11.2984 8.11563L11.0797 8.00625C9.9031 7.45565 8.58957 7.26663 7.30547 7.46313C6.02137 7.65963 4.82448 8.23282 3.86639 9.11009C2.90831 9.98735 2.23214 11.1292 1.92353 12.3911C1.61492 13.6529 1.68776 14.978 2.13282 16.1984C2.21815 16.4147 2.38231 16.5906 2.59219 16.6906C2.70871 16.7441 2.8359 16.7703 2.96407 16.7672C3.06528 16.7702 3.16596 16.7516 3.25938 16.7125L8.11563 14.9516L8.00625 15.1703C7.53917 16.1699 7.33166 17.2711 7.4029 18.3722C7.47414 19.4732 7.82184 20.5385 8.41384 21.4696C9.00585 22.4007 9.82305 23.1674 10.7899 23.699C11.7567 24.2306 12.842 24.5099 13.9453 24.5109C14.7134 24.5099 15.4756 24.3767 16.1984 24.1172C16.4147 24.0319 16.5906 23.8677 16.6906 23.6578C16.7402 23.5542 16.7677 23.4414 16.7715 23.3265C16.7752 23.2117 16.7552 23.0973 16.7125 22.9906L14.9516 18.1344L15.1703 18.2438C15.9392 18.6057 16.7715 18.8137 17.6203 18.8563L23.8766 25.1234C24.0438 25.2852 24.2674 25.3756 24.5 25.3756C24.7326 25.3756 24.9562 25.2852 25.1234 25.1234C25.2877 24.9575 25.3799 24.7335 25.3799 24.5C25.3799 24.2665 25.2877 24.0425 25.1234 23.8766ZM14.3391 3.9375C15.1306 4.31282 15.8052 4.89613 16.2909 5.6251C16.7766 6.35408 17.0551 7.20132 17.0967 8.07629C17.1382 8.95127 16.9413 9.82109 16.5268 10.5928C16.1124 11.3645 15.4961 12.0092 14.7438 12.4578L11.5063 3.55469C12.4675 3.39103 13.4558 3.52459 14.3391 3.9375ZM3.9375 11.9109C4.32918 11.0837 4.94668 10.3839 5.71881 9.89239C6.49094 9.40086 7.38627 9.13755 8.30157 9.13282C9.00544 9.1325 9.7005 9.28945 10.3359 9.59219C11.2211 10.0001 11.9612 10.6677 12.4578 11.5063L3.55469 14.7438C3.39103 13.7825 3.52459 12.7943 3.9375 11.9109ZM11.9109 22.3125C11.1195 21.9372 10.4448 21.3539 9.95912 20.6249C9.47342 19.8959 9.19491 19.0487 9.15335 18.1737C9.11179 17.2987 9.30875 16.4289 9.72317 15.6572C10.1376 14.8855 10.7539 14.2408 11.5063 13.7922L14.7438 22.6953C13.7825 22.859 12.7943 22.7254 11.9109 22.3125ZM13.7922 14.7438L22.6953 11.5063C22.8847 12.616 22.6772 13.7571 22.1091 14.7291C21.5411 15.7011 20.6489 16.4421 19.5891 16.8219C19.0766 17.0073 18.5371 17.1071 17.9922 17.1172H17.9703C17.2595 17.1164 16.5576 16.9596 15.9141 16.6578C15.0289 16.2499 14.2888 15.5823 13.7922 14.7438Z" fill="#0099EF"/>
</svg>
