<svg width="10" height="10" viewBox="0 0 10 10" fill="none" xmlns="http://www.w3.org/2000/svg">
<path d="M5 0C4.0111 0 3.0444 0.293245 2.22215 0.842652C1.39991 1.39206 0.759043 2.17295 0.380604 3.08658C0.00216634 4.00021 -0.0968502 5.00555 0.0960759 5.97545C0.289002 6.94536 0.765206 7.83627 1.46447 8.53553C2.16373 9.23479 3.05465 9.711 4.02455 9.90392C4.99445 10.0969 5.99979 9.99783 6.91342 9.6194C7.82705 9.24096 8.60794 8.60009 9.15735 7.77785C9.70676 6.9556 10 5.98891 10 5C9.99736 3.67473 9.46972 2.40449 8.53262 1.46738C7.59551 0.530275 6.32527 0.00264262 5 0ZM5 9.6C4.09021 9.6 3.20084 9.33021 2.44438 8.82476C1.68791 8.3193 1.09832 7.60088 0.750156 6.76034C0.401993 5.9198 0.310898 4.9949 0.48839 4.10258C0.665882 3.21027 1.10399 2.39063 1.74731 1.74731C2.39063 1.10399 3.21027 0.66588 4.10259 0.488388C4.9949 0.310896 5.91981 0.401991 6.76034 0.750154C7.60088 1.09832 8.31931 1.68791 8.82476 2.44438C9.33022 3.20084 9.6 4.09021 9.6 5C9.59868 6.21959 9.11361 7.38885 8.25123 8.25123C7.38885 9.11361 6.21959 9.59867 5 9.6ZM3.2 5C3.2 5.37779 3.31887 5.746 3.53977 6.05248C3.76066 6.35896 4.07239 6.58816 4.43079 6.70763C4.78919 6.8271 5.1761 6.83077 5.5367 6.71812C5.89731 6.60548 6.21333 6.38223 6.44 6.08C6.45576 6.05899 6.4755 6.04129 6.4981 6.0279C6.5207 6.01452 6.54572 6.00572 6.57172 6.00201C6.59772 5.99829 6.62419 5.99974 6.64964 6.00626C6.67508 6.01277 6.69899 6.02424 6.72 6.04C6.74101 6.05576 6.75871 6.0755 6.7721 6.0981C6.78548 6.1207 6.79428 6.14571 6.79799 6.17171C6.8017 6.19771 6.80026 6.22419 6.79374 6.24963C6.78722 6.27508 6.77576 6.29899 6.76 6.32C6.48296 6.68939 6.09671 6.96225 5.65597 7.09993C5.21523 7.2376 4.74235 7.23312 4.3043 7.0871C3.86625 6.94109 3.48525 6.66095 3.21527 6.28636C2.94528 5.91178 2.8 5.46174 2.8 5C2.8 4.53826 2.94528 4.08822 3.21527 3.71364C3.48525 3.33905 3.86625 3.05891 4.3043 2.9129C4.74235 2.76688 5.21523 2.76239 5.65597 2.90007C6.09671 3.03775 6.48296 3.31061 6.76 3.68C6.77576 3.70101 6.78722 3.72492 6.79374 3.75036C6.80026 3.77581 6.8017 3.80228 6.79799 3.82828C6.79428 3.85428 6.78548 3.8793 6.7721 3.9019C6.75871 3.9245 6.74101 3.94424 6.72 3.96C6.69899 3.97576 6.67508 3.98722 6.64964 3.99374C6.62419 4.00026 6.59772 4.0017 6.57172 3.99799C6.54572 3.99427 6.5207 3.98548 6.4981 3.97209C6.4755 3.95871 6.45576 3.94101 6.44 3.92C6.27315 3.69558 6.05591 3.51349 5.80578 3.38843C5.55566 3.26337 5.27965 3.19882 5 3.2C4.52261 3.2 4.06477 3.38964 3.72721 3.72721C3.38964 4.06477 3.2 4.52261 3.2 5Z" fill="#8E9294"/>
</svg>
