<svg width="14" height="14" viewBox="0 0 14 14" fill="none" xmlns="http://www.w3.org/2000/svg">
<path d="M10 1L7 4L4 1M10 13H12.25C12.4489 13 12.6397 12.921 12.7803 12.7803C12.921 12.6397 13 12.4489 13 12.25V1.75C13 1.55109 12.921 1.36032 12.7803 1.21967C12.6397 1.07902 12.4489 1 12.25 1H10V13ZM1.75 13H4V1H1.75C1.55109 1 1.36032 1.07902 1.21967 1.21967C1.07902 1.36032 1 1.55109 1 1.75V12.25C1 12.4489 1.07902 12.6397 1.21967 12.7803C1.36032 12.921 1.55109 13 1.75 13Z" stroke="#8E9294" stroke-linecap="round" stroke-linejoin="round"/>
<path d="M1 2.875L7 8.5L13 2.875" stroke="#8E9294" stroke-linecap="round" stroke-linejoin="round"/>
</svg>
